<?xml version="1.0" encoding="UTF-8"?>
<svg width="44px" height="44px" viewBox="0 0 44 44" version="1.1" xmlns="http://www.w3.org/2000/svg" xmlns:xlink="http://www.w3.org/1999/xlink">
    <!-- Generator: Sketch 45.1 (43504) - http://www.bohemiancoding.com/sketch -->
    <title>Shape</title>
    <desc>Created with Sketch.</desc>
    <defs></defs>
    <g id="Page-1" stroke="none" stroke-width="1" fill="none" fill-rule="evenodd">
        <g id="by-icon" transform="translate(-1.000000, -1.000000)" fill-rule="nonzero" fill="#FFFFFF">
            <path d="M22.9953887,0.999999058 C28.8480965,0.88140593 34.4906279,3.18182258 38.5921192,7.35866609 C42.7918549,11.4643008 45.1075944,17.1233893 44.9907778,22.9953882 C45.1460384,28.7940886 42.8652552,34.3927042 38.7020961,38.4321521 C34.5765004,42.6636636 28.9050876,45.0318665 22.9953887,44.9907773 C17.1531975,45.0522904 11.5425567,42.7097032 7.47864151,38.5121354 C3.2690577,34.4564259 0.924203066,28.8403543 0.999999626,22.9953882 C0.93726077,17.1178376 3.27745975,11.4695795 7.47864151,7.35866609 C11.5473408,3.1820547 17.1658167,0.879638015 22.9953887,0.999999058 Z M22.9953887,4.99916071 C18.2361358,4.90878997 13.6539725,6.80323377 10.34804,10.2280646 C6.90550463,13.5810405 4.97462766,18.1898814 4.99916128,22.9953882 C4.94892627,27.7629014 6.87000167,32.3394747 10.3080484,35.6427369 C13.6202081,39.0966579 18.2101654,41.0317463 22.9953887,40.9916156 C27.8201009,41.0238537 32.4478406,39.0802753 35.8027039,35.6127432 C39.2447329,32.334048 41.1311604,27.7470124 40.9916162,22.9953882 C41.0840462,18.2006005 39.1918933,13.5805637 35.7627123,10.2280646 C32.413626,6.79381966 27.7912962,4.90072765 22.9953887,4.99916071 Z M28.8841543,17.5665262 L28.8841543,26.5646399 L26.4146719,26.5646399 L26.4146719,37.2124078 L19.5761055,37.2124078 L19.5761055,26.5346462 L17.0666316,26.5346462 L17.0666316,17.5365325 C17.0666316,16.7579742 17.6977778,16.126828 18.4763361,16.126828 L27.4744498,16.126828 C27.8495839,16.121853 28.2105687,16.2698568 28.4742402,16.5367421 C28.7599486,16.7905782 28.9236469,17.1543522 28.9241459,17.5365325 L28.8841543,17.5665262 Z M19.8860405,11.9077125 C19.8860405,9.84147895 20.9058268,8.80836219 22.9453992,8.80836219 C24.9849716,8.80836219 26.0047579,9.84147895 26.0047579,11.9077125 C26.0047579,13.9472849 24.9849716,14.9670711 22.9453992,14.9670711 C20.9058268,14.9670711 19.9027037,13.937287 19.9360301,11.8777188 L19.8860405,11.9077125 Z" id="Shape"></path>
        </g>
    </g>
</svg>