<?xml version="1.0" encoding="UTF-8"?>
<svg width="200px" height="20px" viewBox="0 0 200 20" version="1.1" xmlns="http://www.w3.org/2000/svg" xmlns:xlink="http://www.w3.org/1999/xlink">
    <!-- Generator: Sketch 45.1 (43504) - http://www.bohemiancoding.com/sketch -->
    <title>new-zealand-government-logo</title>
    <desc>Created with Sketch.</desc>
    <defs></defs>
    <g id="Page-1" stroke="none" stroke-width="1" fill="none" fill-rule="evenodd">
        <g id="new-zealand-government-logo" fill="#FFFFFF" fill-rule="nonzero">
            <path d="M87.71,14.305351 L85.78,14.305351 L85.78,7.27540501 C85.78,6.29356897 85.69,6.00883652 85.44,5.67501227 C85.163979,5.38146271 84.7654927,5.22931062 84.36,5.26264114 C83.3497171,5.38719465 82.4174917,5.8605018 81.73,6.59793814 L81.73,14.3249877 L80.73,14.3249877 C80.11,14.3249877 79.78,13.8733432 79.78,13.1566028 L79.78,6.53902798 C79.8357147,5.69534265 79.6990636,4.85007843 79.38,4.06480118 L81.22,3.5640648 C81.475205,4.05930243 81.5990261,4.60975365 81.58,5.16445754 C82.0102456,4.79864873 82.4719733,4.47014079 82.96,4.1826215 C83.5671711,3.83643422 84.2578989,3.65671613 84.96,3.6622484 C86.0198476,3.62289366 87.0022253,4.20547209 87.46,5.14482081 C87.6345633,5.56183759 87.7196687,6.00971702 87.71,6.4604811 L87.71,14.305351 Z M96.21,11.7034855 L96.21,6.20520373 C95.6614358,5.54557993 94.8262702,5.18113738 93.96,5.2233677 C93.1946815,5.21754272 92.4879296,5.62484032 92.12,6.28375061 C91.6771912,7.17688676 91.4872213,8.17052633 91.57,9.16053019 C91.57,11.1831124 91.82,11.742759 92.4,12.3220422 C92.8186428,12.7173383 93.3916307,12.9144205 93.97,12.862052 C94.8881299,12.8922506 95.7502563,12.4295154 96.22,11.6543937 L96.21,11.7034855 Z M98.49,14.2955326 L96.61,14.2955326 C96.5060686,13.9770998 96.44226,13.6473652 96.42,13.3136966 C95.7232402,14.0737022 94.7209733,14.4939037 93.68,14.4624448 C90.97,14.4624448 89.38,12.4987727 89.38,9.18016691 C89.38,6.9317624 90.16,5.25282278 91.61,4.27098675 C92.225235,3.86737551 92.9501026,3.65523383 93.69,3.6622484 C94.7039594,3.64736165 95.6635951,4.1111602 96.27,4.90918017 C96.27,4.61462936 96.27,3.02405498 96.27,2.31713304 L96.27,0.147275405 L98.22,0.461462936 L98.22,10.8001964 C98.1516226,11.9733689 98.2526233,13.15014 98.52,14.2955326 L98.49,14.2955326 Z M75.81,9.18998527 C75.51,9.18998527 75.34,9.18998527 75.17,9.18998527 C73.71,9.18998527 72.82,9.455081 72.39,9.93618066 C71.9994213,10.3464887 71.8001857,10.8977723 71.84,11.4580265 C71.84,12.6067747 72.43,13.2744232 73.52,13.2744232 C74.4596137,13.2388554 75.3090365,12.7152718 75.75,11.8998527 L75.81,9.18998527 Z M78.57,13.460972 L77.57,14.7471772 C76.8897368,14.4829177 76.3677399,13.9307004 76.15,13.2449681 C75.4282151,14.1438618 74.3153067,14.6537855 73.15,14.6195385 C71.03,14.6195385 69.71,13.5591556 69.71,11.5562101 C69.71,9.14089347 71.71,7.85468827 75.12,7.85468827 C75.37,7.85468827 75.59,7.85468827 75.86,7.85468827 L75.86,7.16740304 C75.86,5.940108 75.69,5.10554737 74.21,5.10554737 C73.0259377,5.16858545 71.8892125,5.58283516 70.95,6.29356897 L70,4.90918017 C71.3206821,4.04618709 72.8639647,3.56947909 74.45,3.53460972 C76,3.53460972 77.12,4.09425626 77.52,5.20373098 C77.7114121,5.79641213 77.7827547,6.42016146 77.73,7.03976436 C77.73,7.78595974 77.65,9.39617084 77.65,10.9081983 C77.65,12.4202258 77.65,12.9307806 78.52,13.4315169 L78.57,13.460972 Z M68.84,14.2660776 C68.4585406,14.4279688 68.0453534,14.5050819 67.63,14.4918999 C66.989972,14.5465936 66.3687724,14.2622155 66,13.7457045 C65.6493467,13.2104923 65.5073048,12.5689678 65.6,11.9391262 L65.6,3.4167894 C65.6436734,2.41076952 65.5732404,1.40310135 65.39,0.412371134 L67.39,-1.77635684e-15 C67.5671024,0.971560171 67.6308471,1.95977335 67.58,2.9455081 L67.58,11.3794796 C67.58,12.479136 67.64,12.7344134 67.86,12.9209622 C68.038683,13.0798991 68.2889028,13.1357343 68.52,13.0682376 L68.84,14.2660776 Z M61.47,9.18998527 C61.17,9.18998527 61,9.18998527 60.83,9.18998527 C59.37,9.18998527 58.48,9.455081 58.05,9.93618066 C57.6528811,10.3425555 57.4525832,10.8967784 57.5,11.4580265 C57.5,12.6067747 58.09,13.2744232 59.17,13.2744232 C60.1096137,13.2388554 60.9590365,12.7152718 61.4,11.8998527 L61.47,9.18998527 Z M64.23,13.460972 L63.23,14.7471772 C62.5497368,14.4829177 62.0277399,13.9307004 61.81,13.2449681 C61.0882151,14.1438618 59.9753067,14.6537855 58.81,14.6195385 C56.69,14.6195385 55.38,13.5591556 55.38,11.5562101 C55.38,9.14089347 57.38,7.85468827 60.79,7.85468827 C61.04,7.85468827 61.26,7.85468827 61.53,7.85468827 L61.53,7.16740304 C61.53,5.940108 61.36,5.10554737 59.88,5.10554737 C58.6869608,5.1709429 57.5426604,5.59226117 56.6,6.31320569 L55.71,4.90918017 C57.0304421,4.04569442 58.5738742,3.56894025 60.16,3.53460972 C61.71,3.53460972 62.83,4.09425626 63.23,5.20373098 C63.4214121,5.79641213 63.4927547,6.42016146 63.44,7.03976436 C63.44,7.78595974 63.36,9.39617084 63.36,10.9081983 C63.36,12.4202258 63.36,12.9307806 64.23,13.4315169 L64.23,13.460972 Z M52.23,8.06087383 C52.2787938,7.22563204 52.0469184,6.39776425 51.57,5.70446735 C51.1892139,5.2403624 50.6064205,4.98159341 50,5.00736377 C48.52,5.00736377 47.77,6.19538537 47.77,8.09032892 L52.23,8.06087383 Z M54.23,9.47471772 L47.75,9.47471772 L47.75,9.72999509 C47.7075984,10.4414251 47.8631549,11.1507752 48.2,11.7820324 C48.7356626,12.5853341 49.6630385,13.0517947 50.64,13.0093274 C51.6059921,13.0224774 52.5402638,12.6710209 53.25,12.0274914 L54,13.2056946 C52.988762,14.0840681 51.6800255,14.5602403 50.33,14.5409917 C47.38,14.5409917 45.58,12.4398625 45.58,9.02307315 C45.4618838,7.56796247 45.9164022,6.12375848 46.85,4.98772705 C47.6210836,4.06040631 48.7808368,3.52901879 50,3.54442808 C51.0774772,3.50397354 52.1226326,3.91016631 52.88,4.66372116 C53.81,5.64555719 54.15,6.76485027 54.17,9.16053019 L54.23,9.47471772 Z M34.44,3.92734413 L31.44,14.4329897 L29.58,14.4329897 L28,8.70888562 C27.81,7.98232695 27.34,6.25429553 27.34,6.25429553 L27.28,6.25429553 C27.28,6.25429553 26.86,8.02160039 26.71,8.58124693 L25.12,14.3838979 L23.29,14.3838979 L20.38,3.92734413 L22.38,3.6131566 L23.74,9.5041728 C23.97,10.544919 24.29,12.0667649 24.29,12.0667649 L24.35,12.0667649 C24.35,12.0667649 24.58,10.5841924 24.84,9.69072165 L26.42,3.92734413 L28.42,3.92734413 L29.92,9.52380952 C30.22,10.6431026 30.51,11.9587629 30.51,12.0667649 L30.59,12.0667649 C30.59,11.9587629 30.93,10.2798233 31.08,9.59253805 L32.4,3.92734413 L34.44,3.92734413 Z M17.75,8.08051055 C17.7995414,7.24519117 17.5676013,6.41709235 17.09,5.72410407 C16.7238857,5.2602038 16.157695,4.99133406 15.56,4.99754541 C14.08,4.99754541 13.33,6.18556701 13.33,8.08051055 L17.75,8.08051055 Z M19.75,9.49435444 L13.32,9.49435444 L13.32,9.74963181 C13.2781707,10.4535972 13.4301568,11.1556349 13.76,11.7820324 C14.2820283,12.6056173 15.2126116,13.0924142 16.2,13.0584192 C17.16581,13.0705655 18.0997162,12.7192465 18.81,12.0765832 L19.55,13.2253314 C18.538762,14.1037048 17.2300255,14.579877 15.88,14.5606284 C12.93,14.5606284 11.13,12.4594993 11.13,9.04270987 C11.0040171,7.57771616 11.458985,6.12153198 12.4,4.97790869 C13.1839881,4.04055499 14.3651107,3.51145613 15.6,3.54442808 C16.6774772,3.50397354 17.7226326,3.91016631 18.48,4.66372116 C19.41,5.64555719 19.75,6.76485027 19.77,9.16053019 L19.75,9.49435444 Z M200,3.92734413 L199.47,5.2724595 L197.38,5.2724595 L197.38,11.526755 C197.38,12.8129602 197.7,13.2056946 198.75,13.2056946 C199.094798,13.2107886 199.436416,13.1403519 199.75,12.9995091 L200,14.1384389 C199.403928,14.4298407 198.74583,14.5779153 198.08,14.5704467 C197.441599,14.5925266 196.813243,14.4098564 196.29,14.0500736 C195.85,13.6573392 195.51,13.4511537 195.51,11.9391262 L195.51,5.25282278 L194.24,5.25282278 L194.24,3.92734413 L195.51,3.92734413 C195.500363,3.04195354 195.543771,2.15677277 195.64,1.27638684 L197.64,0.824742268 C197.56,1.57093765 197.45,2.87677958 197.45,3.92734413 L200,3.92734413 Z M192.85,14.305351 L190.93,14.305351 L190.93,7.28522337 C190.93,6.35247914 190.85,6.01865488 190.59,5.69464899 C190.314859,5.39983456 189.915715,5.24743137 189.51,5.28227786 C188.503857,5.40395369 187.574885,5.87392764 186.89,6.6077565 L186.89,14.2955326 L185,14.2955326 L185,6.5586647 C185.055567,5.71818406 184.918895,4.87614564 184.6,4.09425626 L186.44,3.59351988 C186.695616,4.08861344 186.819461,4.63916953 186.8,5.19391262 C187.226202,4.82750739 187.684665,4.49894127 188.17,4.21207658 C188.777171,3.8658893 189.467899,3.68617121 190.17,3.69170349 C191.22533,3.64936948 192.20479,4.22868796 192.66,5.16445754 C192.833216,5.57842849 192.918295,6.02282971 192.91,6.47029946 L192.85,14.305351 Z M181.27,8.09032892 C181.318787,7.26264009 181.090515,6.44199787 180.62,5.75355916 C180.257024,5.29120865 179.694541,5.02234238 179.1,5.02700049 C177.62,5.02700049 176.88,6.20520373 176.88,8.09032892 L181.27,8.09032892 Z M183.27,9.49435444 L176.84,9.49435444 L176.84,9.73981345 C176.802498,10.4488635 176.961469,11.154633 177.3,11.7820324 C177.83102,12.5852782 178.755645,13.0522692 179.73,13.0093274 C180.689292,13.0184411 181.615851,12.6671942 182.32,12.0274914 L183.06,13.1664212 C182.053911,14.0391256 180.752333,14.511787 179.41,14.4918999 C176.48,14.4918999 174.69,12.4005891 174.69,9.00343643 C174.571211,7.55588415 175.022153,6.11870034 175.95,4.98772705 C176.726047,4.04581379 177.90671,3.51526264 179.14,3.55424644 C180.214053,3.5220441 181.252251,3.93548278 182,4.69317624 C182.93,5.62592047 183.27,6.78448699 183.29,9.17034855 L183.27,9.49435444 Z M173.17,14.2758959 L171.25,14.2758959 L171.25,6.87285223 C171.25,5.69464899 170.87,5.2724595 169.98,5.2724595 C168.99396,5.39102214 168.100873,5.90223074 167.51,6.68630339 L167.51,14.305351 L165.61,14.305351 L165.61,6.87285223 C165.61,5.71428571 165.27,5.2724595 164.3,5.2724595 C163.366083,5.3500241 162.498918,5.77924947 161.88,6.47029946 L161.88,14.2562592 L160,14.2562592 L160,6.66666667 C160.081629,5.78536026 159.951473,4.89754427 159.62,4.07461954 L161.43,3.64261168 C161.675324,4.08851046 161.799321,4.58901459 161.79,5.09572901 C162.546446,4.22723798 163.628486,3.696045 164.79,3.62297496 C165.886045,3.62526624 166.874431,4.27093233 167.3,5.26264114 C168.096203,4.29718684 169.26736,3.7026647 170.53,3.62297496 C172.18,3.62297496 173.23,4.604811 173.23,6.56848306 L173.17,14.2758959 Z M157.98,14.2758959 L156.06,14.2758959 L156.06,7.28522337 C156.06,6.35247914 155.98,6.01865488 155.72,5.69464899 C155.444859,5.39983456 155.045715,5.24743137 154.64,5.28227786 C153.628097,5.39683564 152.691496,5.86359687 152,6.59793814 L152,14.2857143 L150.08,14.2857143 L150.08,6.5586647 C150.134553,5.71823078 149.997917,4.87641067 149.68,4.09425626 L151.51,3.59351988 C151.765616,4.08861344 151.889461,4.63916953 151.87,5.19391262 C152.29643,4.82778766 152.754867,4.49924023 153.24,4.21207658 C153.847171,3.8658893 154.537899,3.68617121 155.24,3.69170349 C156.29533,3.64936948 157.27479,4.22868796 157.73,5.16445754 C157.906616,5.56772976 157.998452,6.00187241 158,6.44084438 L157.98,14.2758959 Z M148.71,3.67206676 L148.03,5.57682867 C147.854011,5.51246627 147.6678,5.47922474 147.48,5.47864507 C146.290277,5.48878722 145.322257,6.42186538 145.29,7.58959254 L145.29,14.2758959 L143.35,14.2758959 L143.35,6.66666667 C143.393786,5.78511949 143.257793,4.9038648 142.95,4.07461954 L144.83,3.59351988 C145.054102,4.09916346 145.176353,4.64263237 145.19,5.19391262 L145.19,5.38046146 C145.760158,4.32791264 146.847846,3.6432457 148.06,3.57388316 C148.281372,3.57301658 148.501245,3.60955008 148.71,3.68188513 L148.71,3.67206676 Z M139.63,8.09032892 C139.684673,7.26483972 139.463476,6.44438256 139,5.75355916 C138.637024,5.29120865 138.074541,5.02234238 137.48,5.02700049 C136,5.02700049 135.26,6.20520373 135.26,8.09032892 L139.63,8.09032892 Z M141.63,9.49435444 L135.19,9.49435444 L135.19,9.73981345 C135.14084,10.4568917 135.293032,11.1734663 135.63,11.8114875 C136.15918,12.6116306 137.079146,13.0781887 138.05,13.0387825 C139.012734,13.0504138 139.943331,12.6989931 140.65,12.0569465 L141.39,13.1958763 C140.383409,14.0677558 139.082168,14.5402949 137.74,14.5213549 C134.81,14.5213549 133.01,12.4300442 133.01,9.03289151 C132.892973,7.58392422 133.347657,6.14622478 134.28,5.01718213 C135.053897,4.07806818 136.230183,3.54782159 137.46,3.58370152 C138.534474,3.54358554 139.576412,3.94993904 140.33,4.7029946 C141.26,5.63573883 141.6,6.79430535 141.62,9.18016691 L141.63,9.49435444 Z M132.85,3.92734413 L129,14.3642612 L127.18,14.3642612 L123.4,3.92734413 L125.4,3.6131566 L127.49,9.88708886 C127.72,10.5940108 127.95,11.4187531 128.12,12.125675 C128.29,11.5071183 128.5,10.6921944 128.8,9.84781541 L130.8,3.87825233 L132.85,3.92734413 Z M121,9.27835052 C121,6.06774669 120.05,5.09572901 118.53,5.09572901 C116.84,5.09572901 116.15,6.27393225 116.15,8.8856161 C116.15,12.0569465 116.97,13.107511 118.62,13.107511 C120.1,13.107511 121,11.988218 121,9.27835052 L121,9.27835052 Z M123.17,9.19980363 C123.17,12.4889543 121.38,14.5900835 118.57,14.5900835 C115.76,14.5900835 114,12.4594993 114,9.09180167 C114,5.72410407 115.75,3.62297496 118.54,3.62297496 C121.66,3.62297496 123.18,6.06774669 123.18,9.18998527 L123.17,9.19980363 Z M112.57,13.3529701 C111.264619,14.1081906 109.775116,14.5017959 108.26,14.4918999 C106.501098,14.5645736 104.805502,13.8407489 103.66,12.5282278 C102.457416,11.023546 101.865943,9.13442474 102,7.22631321 C101.980107,5.09364643 102.894277,3.05535236 104.51,1.62984782 C105.527875,0.801199736 106.818297,0.364910994 108.14,0.402552774 C109.643723,0.36297492 111.10869,0.873924464 112.25,1.83603338 L111.25,3.07314678 C110.372667,2.37601113 109.278652,1.99486335 108.15,1.99312715 C106.831641,1.93457358 105.604524,2.65283621 105.03,3.81934217 C104.434797,4.89130845 104.157641,6.10565393 104.23,7.32449681 C104.101261,8.8282183 104.45064,10.3341344 105.23,11.634757 C106.024991,12.4955597 107.167414,12.9665184 108.35,12.9209622 C109.102277,12.9273961 109.843281,12.74128 110.5,12.3809524 L110.5,8.32596956 L107.82,8.32596956 L107.48,6.68630339 L112.48,6.68630339 L112.57,13.3529701 Z M45.86,12.970054 L45.35,14.6293569 L36.68,14.6293569 L36.68,13.0878743 L42.54,3.9862543 C42.8410416,3.47492342 43.1750555,2.98300305 43.54,2.51350025 C43.12,2.51350025 42.59,2.57241041 41.87,2.57241041 L36.87,2.57241041 L37.42,0.932744232 L45.77,0.932744232 L45.77,2.52331861 L40,11.6249386 C39.68,12.1649485 39.35,12.6067747 39.09,12.9896907 C39.53,12.9896907 40.02,12.9896907 40.55,12.9896907 L45.86,12.970054 Z M9.7,14.4526264 L7.53,14.4526264 L3.71,6.87285223 C3.04692134,5.59667759 2.45602424,4.28557236 1.94,2.9455081 L1.81,2.9455081 C1.91,4.20225822 2,5.63573883 2,6.96121748 L2.08,14.4624448 L1.28,14.4624448 C0.34,14.4526264 0,13.5787923 0,12.5969563 L0,0.186548846 L2.38,0.186548846 L6.43,8.04123711 C6.98711927,9.14734054 7.46819488,10.2888225 7.87,11.4580265 L8,11.4580265 C8,11.0456554 7.79,8.7874325 7.79,7.21649485 L7.79,0.216003927 L9.79,0.216003927 L9.7,14.4526264 Z M0,19.018164 C0,19.018164 25.22,16.2199313 49.08,16.2199313 C73.45,16.2199313 98.82,19.018164 98.82,19.018164 L98.82,20 C98.82,20 73.28,17.3490427 49.08,17.3490427 C25.22,17.3490427 0,20 0,20 L0,19.018164 Z"></path>
        </g>
    </g>
</svg>