<?xml version="1.0" encoding="UTF-8"?>
<svg width="44px" height="44px" viewBox="0 0 44 44" version="1.1" xmlns="http://www.w3.org/2000/svg" xmlns:xlink="http://www.w3.org/1999/xlink">
    <!-- Generator: Sketch 45.1 (43504) - http://www.bohemiancoding.com/sketch -->
    <title>cc-icon</title>
    <desc>Created with Sketch.</desc>
    <defs></defs>
    <g id="Page-1" stroke="none" stroke-width="1" fill="none" fill-rule="evenodd">
        <g id="cc-icon" transform="translate(-1.000000, -1.000000)" fill="#FFFFFF" fill-rule="nonzero">
            <path d="M22.9954147,0.999998892 C28.8794599,0.907969621 34.5432601,3.23565776 38.66215,7.43865717 C40.6957665,9.45813578 42.297848,11.8697616 43.3711687,14.52718 C44.4544378,17.2183784 45.004517,20.0944098 44.9908312,22.9954154 C45.0127854,25.8943326 44.4729513,28.7700525 43.4011624,31.4636507 C42.3474852,34.1001707 40.7497235,36.4848898 38.7121396,38.4621923 C36.6176908,40.5473397 34.1346851,42.2015446 31.4036626,43.3311777 C28.7376085,44.4328867 25.8801278,44.9969079 22.9954147,44.9908319 C20.1288574,44.9996837 17.2898027,44.4318727 14.6471544,43.3211798 C11.9562924,42.2007383 9.51333984,40.559645 7.45865234,38.4921861 C5.40043354,36.4570692 3.76594802,34.0342247 2.64965446,31.3636716 C0.438748344,25.9969542 0.438748344,19.9738807 2.64965446,14.6071634 C3.77871677,11.9053047 5.43381037,9.45495051 7.51863984,7.3986655 C11.5520498,3.18987737 17.1674702,0.868256545 22.9954147,0.999998892 Z M22.9954147,4.99916552 C18.2343154,4.89901483 13.6483837,6.79501662 10.3480502,10.2280759 C8.65205932,11.9259954 7.29483973,13.9312873 6.3488836,16.1368446 C4.49019481,20.5029801 4.49019481,25.437861 6.3488836,29.8039966 C8.24645602,34.2145478 11.7747685,37.721368 16.1968314,39.5919569 C20.5781102,41.4099392 25.5027005,41.4099392 29.8839792,39.5919569 C32.1205169,38.6540553 34.1567671,37.2965552 35.8827292,35.5927903 C39.2742866,32.2941299 41.1274767,27.7246201 40.9916646,22.9954154 C41.0025148,20.6269833 40.5472971,18.2795544 39.6519437,16.086855 C38.7573176,13.9098461 37.4347978,11.9345659 35.7627542,10.2780655 C32.4174171,6.83252932 27.7971932,4.92220965 22.9954147,4.99916552 Z M22.715473,19.3761696 L19.7660876,20.9058508 C19.5300961,20.3379215 19.1252248,19.8562643 18.6063293,19.5261383 C18.2208827,19.2871668 17.7798093,19.1527773 17.326596,19.1362196 C15.3603391,19.1362196 14.3772106,20.4326161 14.3772106,23.0254091 C14.3284149,24.0234096 14.5904018,25.0119732 15.1270544,25.8548195 C15.6286621,26.5634627 16.4597896,26.963915 17.326596,26.9145987 C18.5749749,26.9734443 19.7070439,26.1859181 20.086021,24.9949987 L22.7954564,26.3747112 C21.6637101,28.5235548 19.4251943,29.8589453 16.9966648,29.8339903 C15.2345652,29.8963415 13.5244083,29.2310796 12.2676502,27.9943737 C11.0109177,26.6427569 10.3576999,24.8382878 10.4580273,22.9954154 C10.3607276,21.1493223 11.0216305,19.3435768 12.287646,17.9964571 C13.502843,16.7639942 15.1766988,16.0937273 16.9066835,16.1468425 C19.3148419,15.9746991 21.6014898,17.2255151 22.7554647,19.3461758 L22.715473,19.3761696 Z M35.4028292,19.3761696 L32.4934355,20.9058508 C32.2574439,20.3379215 31.8525726,19.8562643 31.3336771,19.5261383 C30.9354055,19.2830621 30.4803774,19.148622 30.0139521,19.1362196 C28.0476952,19.1362196 27.0645668,20.4326161 27.0645668,23.0254091 C27.0157711,24.0234096 27.2777579,25.0119732 27.8144105,25.8548195 C28.3160182,26.5634627 29.1471458,26.963915 30.0139521,26.9145987 C31.2633503,26.9769935 32.3973731,26.188108 32.7733771,24.9949987 L35.5228042,26.3747112 C34.9500477,27.4172455 34.111912,28.2898724 33.0933105,28.9041841 C32.0869783,29.5143687 30.9308461,29.8328243 29.7540063,29.8239924 C27.982702,29.8997625 26.2593569,29.2372159 24.994998,27.9943737 C23.7485216,26.6377035 23.1031277,24.8349272 23.205371,22.9954154 C23.0973317,21.1550669 23.7435115,19.3500953 24.994998,17.9964571 C26.210195,16.7639942 27.8840507,16.0937273 29.6140355,16.1468425 C32.0197236,15.9619938 34.3070166,17.2174548 35.4428208,19.3461758 L35.4028292,19.3761696 Z"></path>
        </g>
    </g>
</svg>